<svg width="180" height="59" viewBox="0 0 180 59" fill="none" xmlns="http://www.w3.org/2000/svg">
<path d="M61.1718 17.7351C61.1722 17.6594 61.1576 17.5844 61.1289 17.5144C61.1002 17.4444 61.0579 17.3807 61.0045 17.327L53.5795 9.9099C52.2462 8.47645 50.628 7.33688 48.8284 6.56414C47.0289 5.7914 45.0876 5.40252 43.129 5.42239C41.1699 5.40022 39.228 5.78806 37.4281 6.56094C35.6282 7.33382 34.0103 8.47462 32.6784 9.9099L25.2534 17.327C25.1995 17.3805 25.1566 17.444 25.1274 17.5141C25.0982 17.5841 25.0831 17.6592 25.0831 17.7351C25.0831 17.811 25.0982 17.8861 25.1274 17.9562C25.1566 18.0262 25.1995 18.0898 25.2534 18.1432L27.4809 20.3866C27.5346 20.44 27.5984 20.4822 27.6685 20.5109C27.7386 20.5396 27.8137 20.5542 27.8894 20.5538C27.9656 20.5576 28.0417 20.5446 28.1123 20.5157C28.1829 20.4868 28.2463 20.4427 28.2979 20.3866L38.7485 9.94713C39.2881 9.34378 39.9531 8.8653 40.6969 8.54504C41.4407 8.22478 42.2455 8.07046 43.0551 8.09284C43.8648 8.07046 44.6696 8.22478 45.4134 8.54504C46.1572 8.8653 46.8221 9.34378 47.3618 9.94713L57.8123 20.3866C57.8639 20.4427 57.9273 20.4868 57.9979 20.5157C58.0685 20.5446 58.1446 20.5576 58.2208 20.5538C58.2966 20.5542 58.3717 20.5396 58.4418 20.5109C58.5119 20.4822 58.5756 20.44 58.6293 20.3866L60.8751 18.1432C60.9524 18.1022 61.0193 18.0441 61.0707 17.9734C61.1221 17.9027 61.1567 17.8212 61.1718 17.7351ZM89.6484 30.2024C89.5951 30.2562 89.5318 30.299 89.4619 30.3283C89.392 30.3576 89.3171 30.3728 89.2413 30.3731H78.7408C76.7834 30.4449 74.8326 30.1076 73.0132 29.3829C71.1938 28.6581 69.5459 27.5619 68.175 26.1644C66.7741 24.7963 65.6755 23.1504 64.9499 21.3326C64.2242 19.5148 63.8877 17.5653 63.9618 15.6097V5.12037C63.9615 5.04444 63.9762 4.9692 64.0051 4.89898C64.034 4.82876 64.0766 4.76497 64.1303 4.71128C64.184 4.6576 64.2479 4.61508 64.3182 4.5862C64.3885 4.55732 64.4638 4.54264 64.5398 4.54301L67.7032 4.53036C67.7789 4.53063 67.8539 4.54584 67.9238 4.57513C67.9936 4.60442 68.057 4.64721 68.1103 4.70104C68.1669 4.75214 68.2116 4.81507 68.2411 4.88535C68.2706 4.95564 68.2843 5.03156 68.2811 5.10772V19.8711C68.2356 20.6789 68.367 21.4869 68.6663 22.2388C68.9655 22.9907 69.4253 23.6683 70.0136 24.2244C70.5703 24.8121 71.2487 25.2715 72.0014 25.5704C72.754 25.8693 73.5629 26.0006 74.3716 25.9551H89.1506C89.2268 25.9519 89.3028 25.9656 89.3732 25.9951C89.4436 26.0246 89.5066 26.0692 89.5577 26.1258C89.6116 26.179 89.6544 26.2423 89.6838 26.3121C89.7131 26.3819 89.7283 26.4568 89.7286 26.5324V29.7051C89.7542 29.7886 89.7604 29.8769 89.7468 29.9632C89.7331 30.0495 89.7 30.1315 89.6498 30.2031L89.6484 30.2024ZM93.164 30.3429C93.1101 30.2897 93.0673 30.2263 93.038 30.1566C93.0087 30.0868 92.9934 30.0119 92.9932 29.9362V19.4468C92.9213 17.4915 93.2589 15.5427 93.9844 13.7252C94.7099 11.9077 95.8073 10.2616 97.2063 8.89215C98.5758 7.49275 100.223 6.3953 102.043 5.67045C103.863 4.94559 105.814 4.60939 107.772 4.68348H118.273C118.349 4.68311 118.424 4.69779 118.494 4.72667C118.565 4.75556 118.628 4.79807 118.682 4.85176C118.736 4.90545 118.778 4.96924 118.807 5.03946C118.836 5.10967 118.851 5.18492 118.851 5.26084L118.863 8.42085C118.863 8.49654 118.848 8.57143 118.818 8.64122C118.789 8.71101 118.746 8.77433 118.692 8.82753C118.641 8.8841 118.578 8.92871 118.508 8.95821C118.438 8.98771 118.362 9.00137 118.285 8.99821H103.506C102.698 8.95273 101.889 9.08402 101.136 9.38293C100.383 9.68184 99.705 10.1412 99.1483 10.7289C98.56 11.285 98.1002 11.9626 97.801 12.7145C97.5017 13.4664 97.3703 14.2744 97.4158 15.0822V29.8456C97.419 29.9217 97.4053 29.9977 97.3758 30.0679C97.3463 30.1382 97.3016 30.2012 97.245 30.2523C97.1917 30.3061 97.1283 30.3489 97.0585 30.3782C96.9886 30.4075 96.9136 30.4227 96.8379 30.4229H93.6618C93.5782 30.4485 93.4899 30.4548 93.4035 30.4411C93.3171 30.4275 93.235 30.3944 93.1633 30.3443L93.164 30.3429ZM150.996 17.7351C150.996 17.6594 150.982 17.5844 150.953 17.5144C150.924 17.4444 150.882 17.3807 150.829 17.327L143.404 9.9099C142.07 8.47645 140.452 7.33688 138.653 6.56414C136.853 5.7914 134.912 5.40252 132.953 5.42239C130.994 5.40022 129.052 5.78806 127.252 6.56094C125.452 7.33382 123.834 8.47462 122.503 9.9099L115.078 17.327C115.024 17.3805 114.981 17.444 114.952 17.5141C114.922 17.5841 114.907 17.6592 114.907 17.7351C114.907 17.811 114.922 17.8861 114.952 17.9562C114.981 18.0262 115.024 18.0898 115.078 18.1432L117.305 20.3866C117.359 20.44 117.423 20.4822 117.493 20.5109C117.563 20.5396 117.638 20.5542 117.714 20.5538C117.79 20.5576 117.866 20.5446 117.937 20.5157C118.007 20.4868 118.071 20.4427 118.122 20.3866L128.573 9.94713C129.112 9.34378 129.777 8.8653 130.521 8.54504C131.265 8.22478 132.07 8.07046 132.879 8.09284C133.689 8.07046 134.494 8.22478 135.238 8.54504C135.981 8.8653 136.646 9.34378 137.186 9.94713L147.637 20.3866C147.688 20.4427 147.752 20.4868 147.822 20.5157C147.893 20.5446 147.969 20.5576 148.045 20.5538C148.121 20.5542 148.196 20.5396 148.266 20.5109C148.336 20.4822 148.4 20.44 148.454 20.3866L150.699 18.1432C150.777 18.1022 150.844 18.0441 150.895 17.9734C150.946 17.9027 150.981 17.8212 150.996 17.7351ZM40.957 57.1036C40.9037 57.1574 40.8404 57.2002 40.7705 57.2295C40.7006 57.2588 40.6257 57.274 40.5499 57.2743H30.0494C28.092 57.346 26.1412 57.0088 24.3218 56.2841C22.5023 55.5593 20.8545 54.4631 19.4836 53.0656C18.0827 51.6975 16.9841 50.0516 16.2584 48.2338C15.5328 46.416 15.1963 44.4665 15.2704 42.5109V32.0216C15.2701 31.9456 15.2848 31.8704 15.3137 31.8002C15.3426 31.73 15.3851 31.6662 15.4389 31.6125C15.4926 31.5588 15.5565 31.5163 15.6268 31.4874C15.6971 31.4585 15.7724 31.4438 15.8484 31.4442L19.0118 31.4316C19.0875 31.4318 19.1625 31.447 19.2324 31.4763C19.3022 31.5056 19.3656 31.5484 19.4189 31.6022C19.4755 31.6533 19.5202 31.7163 19.5497 31.7865C19.5792 31.8568 19.5929 31.9328 19.5897 32.0089V46.7723C19.5442 47.5801 19.6756 48.3881 19.9749 49.14C20.2741 49.8919 20.7339 50.5695 21.3222 51.1256C21.8789 51.7133 22.5573 52.1727 23.31 52.4716C24.0626 52.7705 24.8715 52.9018 25.6802 52.8563H40.4592C40.5354 52.8531 40.6114 52.8668 40.6818 52.8963C40.7522 52.9258 40.8151 52.9704 40.8663 53.027C40.9202 53.0802 40.963 53.1435 40.9923 53.2133C41.0217 53.2831 41.0369 53.358 41.0372 53.4336V56.6063C41.0628 56.6898 41.069 56.7781 41.0554 56.8644C41.0417 56.9507 41.0086 57.0327 40.9584 57.1043L40.957 57.1036Z" fill="#11387F"/>
<path d="M67.1484 44.6012C67.1488 44.5255 67.1342 44.4505 67.1055 44.3805C67.0768 44.3104 67.0345 44.2468 66.9811 44.1931L59.5561 36.776C58.2228 35.3425 56.6046 34.2029 54.805 33.4302C53.0054 32.6575 51.0642 32.2686 49.1055 32.2885C47.1465 32.2663 45.2046 32.6541 43.4047 33.427C41.6048 34.1999 39.9868 35.3407 38.655 36.776L31.23 44.1931C31.176 44.2465 31.1332 44.3101 31.104 44.3801C31.0747 44.4502 31.0597 44.5253 31.0597 44.6012C31.0597 44.6771 31.0747 44.7522 31.104 44.8223C31.1332 44.8923 31.176 44.9559 31.23 45.0093L33.4575 47.2527C33.5112 47.306 33.5749 47.3483 33.645 47.377C33.7151 47.4057 33.7902 47.4202 33.866 47.4198C33.9422 47.4237 34.0183 47.4107 34.0889 47.3818C34.1595 47.3529 34.2229 47.3088 34.2745 47.2527L44.7251 36.8132C45.2647 36.2098 45.9296 35.7314 46.6734 35.4111C47.4173 35.0908 48.222 34.9365 49.0317 34.9589C49.8413 34.9365 50.6461 35.0908 51.3899 35.4111C52.1338 35.7314 52.7987 36.2098 53.3383 36.8132L63.7889 47.2527C63.8405 47.3088 63.9039 47.3529 63.9745 47.3818C64.0451 47.4107 64.1212 47.4237 64.1974 47.4198C64.2732 47.4202 64.3482 47.4057 64.4184 47.377C64.4885 47.3483 64.5522 47.306 64.6059 47.2527L66.8517 45.0093C66.929 44.9683 66.9959 44.9102 67.0473 44.8395C67.0987 44.7688 67.1333 44.6873 67.1484 44.6012ZM105.469 44.9524C105.469 45.0281 105.455 45.1031 105.426 45.1731C105.397 45.2431 105.355 45.3068 105.301 45.3605L97.8764 52.7776C96.5431 54.2111 94.9249 55.3506 93.1253 56.1234C91.3258 56.8961 89.3845 57.285 87.4258 57.2651C85.4668 57.2873 83.5249 56.8995 81.725 56.1266C79.9251 55.3537 78.3071 54.2129 76.9753 52.7776L69.5503 45.3605C69.4963 45.3071 69.4535 45.2435 69.4243 45.1734C69.3951 45.1034 69.38 45.0283 69.38 44.9524C69.38 44.8765 69.3951 44.8014 69.4243 44.7313C69.4535 44.6613 69.4963 44.5977 69.5503 44.5443L71.7778 42.3009C71.8315 42.2475 71.8952 42.2053 71.9654 42.1766C72.0355 42.1479 72.1105 42.1333 72.1863 42.1337C72.2625 42.1299 72.3386 42.1429 72.4092 42.1718C72.4798 42.2007 72.5432 42.2448 72.5948 42.3009L83.0454 52.7404C83.585 53.3437 84.2499 53.8222 84.9938 54.1425C85.7376 54.4627 86.5424 54.617 87.352 54.5947C88.1617 54.617 88.9664 54.4627 89.7103 54.1425C90.4541 53.8222 91.119 53.3437 91.6586 52.7404L102.109 42.3009C102.161 42.2448 102.224 42.2007 102.295 42.1718C102.365 42.1429 102.442 42.1299 102.518 42.1337C102.593 42.1333 102.669 42.1479 102.739 42.1766C102.809 42.2053 102.873 42.2475 102.926 42.3009L105.172 44.5443C105.249 44.5853 105.316 44.6434 105.368 44.7141C105.419 44.7848 105.454 44.8663 105.469 44.9524ZM143.965 44.6012C143.965 44.5255 143.951 44.4505 143.922 44.3805C143.893 44.3104 143.851 44.2468 143.797 44.1931L136.372 36.776C135.039 35.3425 133.421 34.2029 131.621 33.4302C129.822 32.6575 127.881 32.2686 125.922 32.2885C123.963 32.2663 122.021 32.6541 120.221 33.427C118.421 34.1999 116.803 35.3407 115.471 36.776L108.046 44.1931C107.992 44.2465 107.95 44.3101 107.92 44.3801C107.891 44.4502 107.876 44.5253 107.876 44.6012C107.876 44.6771 107.891 44.7522 107.92 44.8223C107.95 44.8923 107.992 44.9559 108.046 45.0093L110.274 47.2527C110.328 47.306 110.391 47.3483 110.461 47.377C110.532 47.4057 110.607 47.4202 110.682 47.4198C110.759 47.4237 110.835 47.4107 110.905 47.3818C110.976 47.3529 111.039 47.3088 111.091 47.2527L121.541 36.8132C122.081 36.2098 122.746 35.7314 123.49 35.4111C124.234 35.0908 125.038 34.9365 125.848 34.9589C126.658 34.9365 127.463 35.0908 128.206 35.4111C128.95 35.7314 129.615 36.2098 130.155 36.8132L140.605 47.2527C140.657 47.3088 140.72 47.3529 140.791 47.3818C140.861 47.4107 140.938 47.4237 141.014 47.4198C141.09 47.4202 141.165 47.4057 141.235 47.377C141.305 47.3483 141.369 47.306 141.422 47.2527L143.668 45.0093C143.745 44.9683 143.812 44.9102 143.864 44.8395C143.915 44.7688 143.95 44.6873 143.965 44.6012ZM172.969 57.1036C172.915 57.1574 172.852 57.2002 172.782 57.2295C172.712 57.2588 172.637 57.274 172.562 57.2743H162.061C160.104 57.346 158.153 57.0088 156.333 56.2841C154.514 55.5593 152.866 54.4631 151.495 53.0656C150.094 51.6975 148.996 50.0516 148.27 48.2338C147.545 46.416 147.208 44.4665 147.282 42.5109V32.0215C147.282 31.9456 147.296 31.8704 147.325 31.8002C147.354 31.7299 147.397 31.6662 147.451 31.6125C147.504 31.5588 147.568 31.5163 147.639 31.4874C147.709 31.4585 147.784 31.4438 147.86 31.4442L151.023 31.4315C151.099 31.4318 151.174 31.447 151.244 31.4763C151.314 31.5056 151.377 31.5484 151.431 31.6022C151.487 31.6533 151.532 31.7162 151.561 31.7865C151.591 31.8568 151.605 31.9327 151.601 32.0089V46.7723C151.556 47.5801 151.687 48.3881 151.987 49.14C152.286 49.8919 152.746 50.5695 153.334 51.1256C153.891 51.7133 154.569 52.1726 155.322 52.4716C156.074 52.7705 156.883 52.9018 157.692 52.8563H172.471C172.547 52.8531 172.623 52.8668 172.694 52.8963C172.764 52.9258 172.827 52.9704 172.878 53.027C172.932 53.0802 172.975 53.1435 173.004 53.2133C173.033 53.2831 173.049 53.3579 173.049 53.4336V56.6063C173.075 56.6898 173.081 56.7781 173.067 56.8644C173.053 56.9507 173.02 57.0327 172.97 57.1043L172.969 57.1036Z" fill="#11387F"/>
<path d="M1.40625 0.702393C56.25 20.3691 125.156 20.3691 178.594 0.702393V2.10715C123.75 21.7738 54.8438 21.7738 1.40625 2.10715V0.702393ZM1.40625 0.702393V38.631H178.594V40.0357H1.40625V0.702393Z" fill="#11387F"/>
</svg>
